# xmcd
#
# Track frame offsets:
#	150
#	13288
#	27691
#	37183
#	55329
#	68894
#	82396
#	94776
#	105522
#	127477
#	139447
#	159415
#
# Disc length: 2288 seconds
#
# Revision: 1
# Processed by: cddbd v1.5.2PL0 Copyright (c) Steve Scherf et al.
# Submitted via: audiograbber 1.83.01
#
DISCID=bb08ee0c
DTITLE=Georgette Jones - A slightly used woman
DYEAR=2009
DGENRE=Country
TTITLE0=Slightly used woman
TTITLE1=Leaving yesterday
TTITLE2=The race is on
TTITLE3=I hope you knew
TTITLE4=Second time around
TTITLE5=Send me no roses
TTITLE6=You don't hear
TTITLE7=I still believe in fairy tales
TTITLE8=You and me and time (with George Jones)
TTITLE9=I don't wanna play house
TTITLE10=Better a painful ending (with Mark McGuinn)
TTITLE11=Precious memories
EXTD=
EXTT0=
EXTT1=
EXTT2=
EXTT3=
EXTT4=
EXTT5=
EXTT6=
EXTT7=
EXTT8=
EXTT9=
EXTT10=
EXTT11=
PLAYORDER=
